<svg version="1.1" xmlns="http://www.w3.org/2000/svg" xmlns:xlink="http://www.w3.org/1999/xlink" width="51.5" height="293.41804" viewBox="0,0,51.5,293.41804"><g transform="translate(-206.75,-33.75)"><g data-paper-data="{&quot;isPaintingLayer&quot;:true}" fill-rule="nonzero" stroke="#000000" stroke-width="3.5" stroke-linejoin="miter" stroke-miterlimit="10" stroke-dasharray="" stroke-dashoffset="0" style="mix-blend-mode: normal"><path d="M255.5,173.45902c0,12.12763 -10.17635,21.95902 -22.72951,21.95902c-12.55316,0 -22.72951,-9.83139 -22.72951,-21.95902c0,-12.12763 10.17635,-21.95902 22.72951,-21.95902c12.55316,0 22.72951,9.83139 22.72951,21.95902z" fill="#ff6666" stroke-linecap="butt"/><path d="M226.22131,172.85974c0,4.34987 -3.96705,7.87614 -8.86066,7.87614c-4.89361,0 -8.86066,-3.52627 -8.86066,-7.87614c0,-4.34987 3.19656,-2.4827 8.09016,-2.4827c4.89361,0 9.63115,-1.86718 9.63115,2.4827z" fill="#ffffff" stroke-linecap="butt"/><path d="M213.89344,174.61475c0,1.91489 -0.68992,3.46721 -1.54098,3.46721c-0.85106,0 -1.54098,-1.55232 -1.54098,-3.46721c0,-1.91489 0.68992,-3.46721 1.54098,-3.46721c0.85106,0 1.54098,1.55232 1.54098,3.46721z" fill="#000000" stroke-linecap="butt"/><path d="M214.66393,187.32787h23.88525" fill="none" stroke-linecap="round"/><path d="M256.5,57.45902c0,12.12763 -10.17635,21.95902 -22.72951,21.95902c-12.55316,0 -22.7295,-9.83139 -22.7295,-21.95902c0,-12.12763 10.17634,-21.95901 22.7295,-21.95901c12.55316,0 22.72951,9.83138 22.72951,21.95901z" fill="#ff6666" stroke-linecap="butt"/><path d="M227.22131,56.85975c0,4.34987 -3.96705,7.87614 -8.86065,7.87614c-4.89361,0 -8.86066,-3.52627 -8.86066,-7.87614c0,-4.34987 3.19656,-2.4827 8.09017,-2.4827c4.89361,0 9.63114,-1.86718 9.63114,2.4827z" fill="#ffffff" stroke-linecap="butt"/><path d="M214.89345,58.61476c0,1.91489 -0.68993,3.46721 -1.54099,3.46721c-0.85106,0 -1.54099,-1.55232 -1.54099,-3.46721c0,-1.91489 0.68993,-3.46722 1.54099,-3.46722c0.85106,0 1.54099,1.55232 1.54099,3.46722z" fill="#000000" stroke-linecap="butt"/><path d="M215.66394,71.32787h23.88524" fill="none" stroke-linecap="round"/><path d="M255.5,303.45902c0,12.12763 -10.17635,21.95902 -22.72951,21.95902c-12.55316,0 -22.7295,-9.83139 -22.7295,-21.95902c0,-12.12763 10.17634,-21.95902 22.7295,-21.95902c12.55316,0 22.72951,9.83138 22.72951,21.95902z" fill="#ff6666" stroke-linecap="butt"/><path d="M226.22131,302.85974c0,4.34987 -3.96705,7.87614 -8.86065,7.87614c-4.89361,0 -8.86066,-3.52627 -8.86066,-7.87614c0,-4.34987 3.19656,-2.48269 8.09017,-2.48269c4.89361,0 9.63114,-1.86718 9.63114,2.48269z" fill="#ffffff" stroke-linecap="butt"/><path d="M213.89345,304.61476c0,1.91489 -0.68993,3.46721 -1.54099,3.46721c-0.85106,0 -1.54099,-1.55232 -1.54099,-3.46721c0,-1.91489 0.68993,-3.46722 1.54099,-3.46722c0.85106,0 1.54099,1.55232 1.54099,3.46722z" fill="#000000" stroke-linecap="butt"/><path d="M214.66394,317.32787h23.88524" fill="none" stroke-linecap="round"/></g></g></svg>