<svg version="1.1" xmlns="http://www.w3.org/2000/svg" xmlns:xlink="http://www.w3.org/1999/xlink" width="28.62634" height="30.15796" viewBox="0,0,28.62634,30.15796"><g transform="translate(-225.63458,-165.16436)"><g data-paper-data="{&quot;isPaintingLayer&quot;:true}" fill-rule="nonzero" stroke-linejoin="miter" stroke-miterlimit="10" stroke-dasharray="" stroke-dashoffset="0" style="mix-blend-mode: normal"><path d="M226.63458,189.04503v-9.74134h26.62634v9.74134z" fill="#ff0000" stroke="#000000" stroke-width="2" stroke-linecap="butt"/><path d="M229.83603,194.32232v-6.9586h20.07848v6.9586z" fill="#ff0000" stroke="#000000" stroke-width="2" stroke-linecap="butt"/><path d="M248.60977,190.48059l1.73965,-3.76924" fill="none" stroke="#ff0000" stroke-width="2" stroke-linecap="round"/><path d="M250.78433,187.4362l-21.09328,-0.28994" fill="none" stroke="#ff0000" stroke-width="2" stroke-linecap="round"/><path d="M249.91451,187.4362h-20.80333" fill="none" stroke="#ff0000" stroke-width="3" stroke-linecap="round"/><path d="M228.89371,187.9436l3.84173,0.07249" fill="none" stroke="#ff0000" stroke-width="3" stroke-linecap="round"/><path d="M230.12596,187.58117l19.64357,-0.79734l0.5074,1.66717l-20.80333,0.07249" fill="none" stroke="#ff0000" stroke-width="3" stroke-linecap="round"/><path d="M248.59205,174.08692c0,2.89427 -2.70094,5.24054 -6.03272,5.24054c-3.33178,0 -6.03272,-2.34627 -6.03272,-5.24054c0,-2.89427 2.70094,-5.24054 6.03272,-5.24054c3.33178,0 6.03272,2.34627 6.03272,5.24054z" fill="#ffd2a2" stroke="#000000" stroke-width="1" stroke-linecap="butt"/><path d="M243.71713,173.23381l1.70623,1.21873l-0.36562,1.70623" fill="none" stroke="#000000" stroke-width="1" stroke-linecap="round"/><path d="M242.13278,177.25562l4.38743,0.36562" fill="none" stroke="#000000" stroke-width="1" stroke-linecap="round"/><path d="M226.28928,179.08372c0,0 3.56412,-7.41241 6.37454,-10.20087c2.2759,-2.25811 9.10334,-3.20517 9.10334,-3.20517c0,0 5.60107,2.21239 7.52782,4.77434c1.75376,2.33193 3.6845,7.90046 3.6845,7.90046l0.73124,0.85311" fill="none" stroke="#000000" stroke-width="1" stroke-linecap="round"/></g></g></svg>