<svg version="1.1" xmlns="http://www.w3.org/2000/svg" xmlns:xlink="http://www.w3.org/1999/xlink" width="861.5" height="479.82044" viewBox="0,0,861.5,479.82044"><g transform="translate(32,19.82044)"><g data-paper-data="{&quot;isPaintingLayer&quot;:true}" fill-rule="nonzero" stroke="#000000" stroke-width="2" stroke-linejoin="miter" stroke-miterlimit="10" stroke-dasharray="" stroke-dashoffset="0" style="mix-blend-mode: normal"><path d="M-19.16501,445.63672v-464.45715h599.63028v464.45716z" fill="#00c9ff" stroke-linecap="butt"/><path d="M-30.5,459v-167h859v167z" fill="#00ff0e" stroke-linecap="butt"/><path d="M511.5,354.40386l18,-59l-560.5,-4.53606v59c0,0 63.70407,-12.75655 115.49754,-12.56753c18.97819,0.06926 40.6722,14.65149 73.02403,15.54665c16.23944,0.44934 45.73838,-12.22285 63.96302,-11.99392c17.65701,0.2218 46.78721,11.57613 64.95991,12.02425c17.30381,0.4267 43.41687,-8.29086 60.03358,-8.1199c28.67446,0.29501 68.10781,14.02107 91.17402,14.90215c15.50341,0.5922 32.49467,-8.73661 43.17913,-9.52298c28.01284,-2.06172 36.16877,1.73127 36.16877,1.73127" fill="none" stroke-linecap="round"/></g></g></svg>