<svg version="1.1" xmlns="http://www.w3.org/2000/svg" xmlns:xlink="http://www.w3.org/1999/xlink" width="122" height="288" viewBox="0,0,122,288"><g transform="translate(-179,-36)"><g data-paper-data="{&quot;isPaintingLayer&quot;:true}" fill-rule="nonzero" stroke="#000000" stroke-width="2" stroke-linejoin="miter" stroke-miterlimit="10" stroke-dasharray="" stroke-dashoffset="0" style="mix-blend-mode: normal"><path d="M214,248v-135h69v135z" fill="#ff0000" stroke-linecap="butt"/><path d="M300,88c0,28.16652 -23.95276,51 -53.5,51c-29.54723,0 -53.5,-22.83348 -53.5,-51c0,-28.16652 23.95277,-51 53.5,-51c29.54724,0 53.5,22.83348 53.5,51z" fill="#ffd2a2" stroke-linecap="butt"/><path d="M206,121c0,0 15.45448,-2.52726 22.0786,-3.41048c3.68477,-0.4913 10.18868,-3.37147 15.08757,-0.91894c5.84799,2.92767 15.83382,11.32942 15.83382,11.32942l-40.49999,3.25z" fill="#ffffff" stroke-linecap="round"/><path d="M217,79c0,2.20914 -1.79086,4 -4,4c-2.20914,0 -4,-1.79086 -4,-4c0,-2.20914 1.79086,-4 4,-4c2.20914,0 4,1.79086 4,4z" fill="#000000" stroke-linecap="butt"/><path d="M214,248l-1,63l-33,9" fill="none" stroke-linecap="round"/><path d="M283,251l1,67l-34,5" fill="none" stroke-linecap="round"/><path d="M234,138l2,63" fill="none" stroke-linecap="round"/><path d="M219.5,120.25l4,6" fill="none" stroke-linecap="round"/><path d="M236.5,119.25l7,7" fill="none" stroke-linecap="round"/></g></g></svg>