<svg version="1.1" xmlns="http://www.w3.org/2000/svg" xmlns:xlink="http://www.w3.org/1999/xlink" width="273.5" height="334.75" viewBox="0,0,273.5,334.75"><g transform="translate(-27.5,10.75)"><g data-paper-data="{&quot;isPaintingLayer&quot;:true}" fill-rule="nonzero" stroke-linejoin="miter" stroke-miterlimit="10" stroke-dasharray="" stroke-dashoffset="0" style="mix-blend-mode: normal"><path d="M214,248v-135h69v135z" fill="#ff0000" stroke="#000000" stroke-width="2" stroke-linecap="butt"/><path d="M300,88c0,28.16652 -23.95276,51 -53.5,51c-29.54723,0 -53.5,-22.83348 -53.5,-51c0,-28.16652 23.95277,-51 53.5,-51c29.54724,0 53.5,22.83348 53.5,51z" fill="#ffd2a2" stroke="#000000" stroke-width="2" stroke-linecap="butt"/><path d="M27.5,135v0z" fill="#ffecb4" stroke="#000000" stroke-width="2" stroke-linecap="butt"/><path d="M236.04241,64.24445c3.96833,5.98335 0.84238,15.04061 -6.98201,20.22996c-7.82438,5.18935 -17.38427,4.54568 -21.35259,-1.43767c-3.96832,-5.98335 4.41271,-8.92636 12.2371,-14.11571c7.82439,-5.18935 12.12919,-10.65994 16.09751,-4.67658z" fill="#ffffff" stroke="#000000" stroke-width="2" stroke-linecap="butt"/><path d="M206,121c0,0 15.45448,-2.52726 22.0786,-3.41048c3.68477,-0.4913 10.18868,-3.37147 15.08757,-0.91894c5.84799,2.92767 15.83382,11.32942 15.83382,11.32942l-36.49999,5z" fill="#000000" stroke="#000000" stroke-width="2.5" stroke-linecap="round"/><path d="M217,79c0,2.20914 -1.79086,4 -4,4c-2.20914,0 -4,-1.79086 -4,-4c0,-2.20914 1.79086,-4 4,-4c2.20914,0 4,1.79086 4,4z" fill="#000000" stroke="#000000" stroke-width="2" stroke-linecap="butt"/><path d="M214,248l-1,63l-33,9" fill="none" stroke="#000000" stroke-width="2" stroke-linecap="round"/><path d="M283,251l1,67l-34,5" fill="none" stroke="#000000" stroke-width="2" stroke-linecap="round"/><path d="M231.18175,150.92304l-62.3635,9.15393" fill="none" stroke="#000000" stroke-width="2" stroke-linecap="round"/><path d="M223.5,59l-18,12" fill="none" stroke="#000000" stroke-width="2.5" stroke-linecap="round"/><text transform="translate(218.5,11) scale(0.5,0.5)" font-size="40" xml:space="preserve" fill="#000000" fill-rule="nonzero" stroke="none" stroke-width="1" stroke-linecap="butt" stroke-linejoin="miter" stroke-miterlimit="10" stroke-dasharray="" stroke-dashoffset="0" font-family="Sans Serif" font-weight="normal" text-anchor="start" style="mix-blend-mode: normal"><tspan x="0" dy="0">HYA</tspan></text></g></g></svg>